<svg width="40" height="40" viewBox="0 0 40 40" fill="none" xmlns="http://www.w3.org/2000/svg">
<path fill-rule="evenodd" clip-rule="evenodd" d="M20 40C31.0457 40 40 31.0457 40 20C40 8.95431 31.0457 0 20 0C8.95431 0 0 8.95431 0 20C0 31.0457 8.95431 40 20 40ZM12.921 21.168V6.51163H12.075C10.1767 6.51163 8.63787 8.05779 8.63787 9.96508V30.2608C8.63787 32.08 10.1057 33.5548 11.9163 33.5548H29.948C30.7657 33.5548 31.4286 32.8888 31.4286 32.0672V31.3765H12.1125C11.1572 31.3765 10.3829 30.5984 10.3829 29.6387C10.3829 28.6325 11.1947 27.8168 12.1961 27.8168H31.4286V7.62736C31.4286 7.01116 30.9314 6.51163 30.3181 6.51163H18.6848V21.2818H18.4397L15.6443 16.872L12.921 21.168Z" fill="#3C787E"/>
</svg>
