<svg width="40" height="40" viewBox="0 0 40 40" fill="none" xmlns="http://www.w3.org/2000/svg">
<path d="M8.03284 12.4054C6.64607 12.4054 5.52187 13.5274 5.52187 14.9115V26.1092C5.52187 26.4986 5.61083 26.8672 5.76956 27.1959L11.857 20.6308C12.4169 20.027 13.3735 20.027 13.9333 20.6307L21.337 28.6154H22.6714L17.6242 23.1721L22.8367 17.5506C23.3965 16.9468 24.3531 16.9468 24.9129 17.5506L34.0902 27.448C34.3359 27.0607 34.4781 26.6015 34.4781 26.1092V14.9115C34.4781 13.5274 33.3539 12.4054 31.9672 12.4054H8.03284Z" fill="#3C787E"/>
<path fill-rule="evenodd" clip-rule="evenodd" d="M20 40C31.0457 40 40 31.0457 40 20C40 8.9543 31.0457 0 20 0C8.9543 0 0 8.9543 0 20C0 31.0457 8.9543 40 20 40ZM4.7205 14.4316C4.7205 13.0475 5.8447 11.9255 7.23146 11.9255H32.7685C34.1553 11.9255 35.2795 13.0475 35.2795 14.4316V26.5891C35.2795 27.9732 34.1553 29.0953 32.7685 29.0953H21.2822V30.6416H25.339C25.6726 30.6416 25.9824 30.8142 26.1575 31.0976L27.3765 33.0706C27.7716 33.71 27.3107 34.5342 26.558 34.5342H13.57C12.7913 34.5342 12.3355 33.6586 12.7832 33.0226L14.1719 31.0497C14.352 30.7939 14.6456 30.6416 14.9588 30.6416H18.7178V29.0953H7.23146C5.84469 29.0953 4.7205 27.9732 4.7205 26.5891V14.4316Z" fill="#3C787E"/>
</svg>
