<svg width="40" height="40" viewBox="0 0 40 40" fill="none" xmlns="http://www.w3.org/2000/svg">
<path fill-rule="evenodd" clip-rule="evenodd" d="M20 40C31.0457 40 40 31.0457 40 20C40 8.95431 31.0457 0 20 0C8.95431 0 0 8.95431 0 20C0 31.0457 8.95431 40 20 40ZM19.9733 4.53907C19.9717 4.5374 19.969 4.5374 19.9673 4.53906L2.02525 22.4811C1.56581 22.9406 1.56581 23.6855 2.02525 24.1449C2.48469 24.6043 3.22959 24.6043 3.68903 24.1449L17.4807 10.3532C18.859 8.97493 21.0937 8.97493 22.472 10.3532L36.2637 24.1449C36.7231 24.6043 37.468 24.6043 37.9274 24.1449C38.3869 23.6855 38.3869 22.9406 37.9274 22.4811L32.1008 16.6545V6.55462H26.5546V11.1083L19.9854 4.53906C19.9837 4.5374 19.981 4.5374 19.9794 4.53907C19.9777 4.54073 19.975 4.54073 19.9733 4.53907ZM8.40336 20.7751V30.9244C8.40336 33.4305 10.435 35.4622 12.9412 35.4622H17.3109V29.2437C17.3109 28.4083 17.9881 27.7311 18.8235 27.7311H21.3445C22.1799 27.7311 22.8571 28.4083 22.8571 29.2437V35.4622H27.0588C29.565 35.4622 31.5966 33.4305 31.5966 30.9244V20.8224L22.472 11.6978C21.0937 10.3195 18.859 10.3195 17.4807 11.6978L8.40336 20.7751Z" fill="#3C787E"/>
</svg>
