<svg width="40" height="40" viewBox="0 0 40 40" fill="none" xmlns="http://www.w3.org/2000/svg">
<path d="M25.2571 14.2619C25.4602 14.1996 25.5743 13.9844 25.5119 13.7813C25.4496 13.5783 25.2344 13.4642 25.0313 13.5266L16.6102 16.112C15.4534 16.4672 15.4258 18.0947 16.5699 18.4888L22.0118 20.3635C22.4257 20.5061 22.4492 21.0826 22.0484 21.2584L15.8551 23.9747C15.6606 24.06 15.5721 24.2869 15.6574 24.4814C15.7427 24.6759 15.9696 24.7645 16.1641 24.6791L22.3573 21.9628C23.3996 21.5057 23.3384 20.0069 22.2624 19.6363L16.8204 17.7615C16.3804 17.6099 16.391 16.984 16.8359 16.8474L25.2571 14.2619Z" fill="#3C787E"/>
<path fill-rule="evenodd" clip-rule="evenodd" d="M20 40C31.0457 40 40 31.0457 40 20C40 8.95431 31.0457 0 20 0C8.95431 0 0 8.95431 0 20C0 31.0457 8.95431 40 20 40ZM27.7657 25.9648C26.7433 27.0094 25.9615 28.3308 25.9615 29.7924C25.9615 32.1905 24.0175 34.1346 21.6193 34.1346H18.4172C16.052 34.1346 14.1346 32.2172 14.1346 29.852C14.1346 28.3944 13.3477 27.079 12.317 26.0484C10.3508 24.0821 9.13462 21.3658 9.13462 18.3654C9.13462 12.3646 13.9992 7.5 20 7.5C26.0008 7.5 30.8654 12.3646 30.8654 18.3654C30.8654 21.3235 29.6833 24.0055 27.7657 25.9648ZM16.0833 35.097C15.8713 35.0829 15.6881 35.2432 15.6739 35.4552C15.6598 35.6671 15.8202 35.8504 16.0321 35.8645C16.6276 35.9042 21.7633 35.8813 24.2333 35.8654C24.4457 35.864 24.6167 35.6907 24.6154 35.4783C24.614 35.2659 24.4407 35.0948 24.2283 35.0962C21.7303 35.1123 16.6417 35.1342 16.0833 35.097ZM23.5121 37.2115C23.7245 37.2102 23.8956 37.0369 23.8942 36.8244C23.8929 36.612 23.7195 36.4409 23.5071 36.4423C21.5656 36.4548 19.0769 36.4478 17.7839 36.4441H17.783L17.7652 36.444C17.4144 36.443 17.1538 36.4423 17.0192 36.4423C16.8068 36.4423 16.6346 36.6145 16.6346 36.8269C16.6346 37.0393 16.8068 37.2115 17.0192 37.2115C17.1539 37.2115 17.4184 37.2123 17.7754 37.2133H17.7771C19.068 37.217 21.5661 37.2241 23.5121 37.2115Z" fill="#3C787E"/>
</svg>
