<svg width="40" height="40" viewBox="0 0 40 40" fill="none" xmlns="http://www.w3.org/2000/svg">
<path d="M16.8822 12.077H23.1799V10.0348C23.1799 9.59189 22.8209 9.23282 22.3779 9.23282H17.6842C17.2412 9.23282 16.8822 9.59189 16.8822 10.0348V12.077Z" fill="#3C787E"/>
<path fill-rule="evenodd" clip-rule="evenodd" d="M20 40C31.0457 40 40 31.0457 40 20C40 8.9543 31.0457 0 20 0C8.9543 0 0 8.9543 0 20C0 31.0457 8.9543 40 20 40ZM16.533 8.14933C16.09 8.14933 15.731 8.5084 15.731 8.95134V12.077H8.03204C6.78628 12.077 5.7764 13.0869 5.7764 14.3326V22.0315H17.4916V21.196C17.4916 20.9469 17.6936 20.7449 17.9428 20.7449H22.1194C22.3685 20.7449 22.5705 20.9469 22.5705 21.196V22.0315H34.2857V14.3326C34.2857 13.0869 33.2758 12.077 32.0301 12.077H24.3312V8.95134C24.3312 8.5084 23.9721 8.14933 23.5291 8.14933H16.533ZM17.4916 22.9796H5.7764V29.595C5.7764 30.8408 6.78628 31.8507 8.03203 31.8507H32.0301C33.2758 31.8507 34.2857 30.8408 34.2857 29.595V22.9796H22.5705V23.8151C22.5705 24.0643 22.3685 24.2662 22.1194 24.2662H17.9428C17.6936 24.2662 17.4916 24.0643 17.4916 23.8151V22.9796Z" fill="#3C787E"/>
</svg>
